<?xml version="1.0" encoding="utf-8"?>
<!-- Generator: Adobe Illustrator 24.1.1, SVG Export Plug-In . SVG Version: 6.00 Build 0)  -->
<svg version="1.1" id="Layer_1" xmlns="http://www.w3.org/2000/svg" xmlns:xlink="http://www.w3.org/1999/xlink" x="0px" y="0px"
	 viewBox="0 0 718.1 449.34" style="enable-background:new 0 0 718.1 449.34;" xml:space="preserve">
<style type="text/css">
	.st0{fill:#010101;}
	.st1{font-family:'GrandHotel-Regular';}
	.st2{font-size:210.1499px;}
	.st3{font-family:'Montserrat-Regular';}
	.st4{font-size:38.7707px;}
	.st5{fill-rule:evenodd;clip-rule:evenodd;fill:#010101;}
</style>
<text id="XMLID_55_" transform="matrix(1 0 0 1 0.9998 383.9385)" class="st0 st1 st2">FoodBelle</text>
<text id="XMLID_32_" transform="matrix(1 0 0 1 94.2175 442.539)" class="st0 st3 st4">PREMIUM FOOD DELIVERY</text>
<g>
	<g id="XMLID_49_">
		<path id="XMLID_50_" class="st0" d="M362.39,106.71c-78.33,0-145.32,49.34-171.62,118.56h4.83
			c26.07-66.68,90.98-114.07,166.79-114.07c75.81,0,140.72,47.38,166.79,114.07h4.83C507.71,156.05,440.72,106.71,362.39,106.71z"/>
		<path id="XMLID_51_" class="st0" d="M150.2,225.27c27.85-90.75,112.43-156.93,212.19-156.93s184.34,66.18,212.19,156.93h9.34
			C555.78,129.5,467.15,59.35,362.39,59.35c-104.76,0-193.39,70.15-221.53,165.92H150.2z"/>
	</g>
	<path id="XMLID_39_" class="st5" d="M357.63,144.95c6.28,5.72,24.06,20.54,33.4,28.37c9.33,7.83,14.98,11.64,41.93,43.61
		c2.28,2.71,4.61,5.5,6.96,8.33h48.8c-4.7-4.27-9.78-8.82-15.33-13.67c-41.63-36.41-49.23-42.13-56.37-49.54
		c-7.14-7.41-21.52-27.54-29.26-37.7c-7.75-10.17-36.9-41.72-63.1-66.5c-26.2-24.78-46.31-39.16-59.48-44.35
		c0,0-15.53-4.83-21.1-3.48c-5.56,1.36-12.57,5.03-3.98,14.39C248.69,33.8,351.35,139.24,357.63,144.95z"/>
	<g id="XMLID_36_">
		<path id="XMLID_38_" class="st0" d="M325.68,169.42L325.68,169.42c14.08-13.9,27.02-26.32,32.21-31.08
			c11.41-10.45,11.47-8,19.38-10.79c7.93-2.78,18.49,0.37,31.54-9.2c13.05-9.59,36.08-38.51,59.31-65.86
			c23.24-27.36,18.24-22.83,14.68-19.35c-3.56,3.48-66.2,65.51-70.14,68.29c-3.94,2.79-8.21-2.63-5.9-5.59
			c2.3-2.96,4.25-5.23,17.03-19.51c12.78-14.29,50.45-55.41,49.53-55.94c-0.91-0.52-69.25,67.25-72.65,70.38
			c-3.04,2.83-4.59,0.55-5.11,0.06l-0.08-0.08c-0.53-0.5-2.96-1.99-0.08-4.98c3.2-3.31,72.47-70.21,71.91-71.08
			c-0.55-0.87-42.65,36.06-57.28,48.6c-14.62,12.53-16.95,14.45-19.98,16.72c-3.04,2.26-8.73-1.75-5.9-5.59
			c2.83-3.83,66.21-65.15,69.77-68.63c3.56-3.49,8.18-8.37-19.85,14.45c-28.03,22.82-57.7,45.45-67.43,58.18
			c-9.73,12.72-6.27,22.84-9.03,30.51c-2.76,7.67-0.23,7.67-10.9,18.82c-4.93,5.15-17.92,18.12-32.38,32.14l0,0L325.68,169.42z"/>
		<path id="XMLID_94_" class="st0" d="M273.17,225.27c2.91-3.56,5.75-6.97,8.41-10.1c7.92-9.32,23.7-25.48,39.07-40.76l-11.58-9.43
			c-15.37,14.8-31.49,29.86-40.88,37.51c-8.52,6.93-19.03,15.07-29.28,22.77H273.17z"/>
	</g>
</g>
</svg>
