<svg id="Layer_1" data-name="Layer 1" xmlns="http://www.w3.org/2000/svg" viewBox="0 0 708.66 467.71"><defs><style>.cls-1{font-size:210.15px;font-family:GrandHotel-Regular, Grand Hotel;}.cls-1,.cls-3,.cls-4{fill:#fff;}.cls-2{letter-spacing:-0.02em;}.cls-4{fill-rule:evenodd;}</style></defs><text class="cls-1" transform="translate(0 381.13)"><tspan class="cls-2">F</tspan><tspan x="118.32" y="0">oodBelle</tspan></text><path class="cls-3" d="M119.88,424.7c0,5.78-4.18,9.27-11.08,9.27h-7.29v8.57H98.64V415.4H108.8C115.7,415.4,119.88,418.89,119.88,424.7Zm-2.86,0c0-4.34-2.87-6.82-8.3-6.82h-7.21v13.57h7.21C114.15,431.45,117,429,117,424.7Z" transform="translate(-1 -2.81)"/><path class="cls-3" d="M144.62,442.54l-6.2-8.72a21.48,21.48,0,0,1-2.18.11H129v8.61h-2.87V415.4h10.15c6.91,0,11.09,3.49,11.09,9.3a8.4,8.4,0,0,1-6.2,8.53l6.63,9.31Zm-.16-17.84c0-4.34-2.86-6.82-8.29-6.82H129v13.61h7.21C141.6,431.49,144.46,429,144.46,424.7Z" transform="translate(-1 -2.81)"/><path class="cls-3" d="M173.31,440.06v2.48H154.12V415.4h18.61v2.48H157v9.65h14V430H157v10.08Z" transform="translate(-1 -2.81)"/><path class="cls-3" d="M208.24,415.4v27.14h-2.75V420.83l-10.66,18.26h-1.36l-10.66-18.15v21.6h-2.75V415.4h2.36l11.79,20.12,11.67-20.12Z" transform="translate(-1 -2.81)"/><path class="cls-3" d="M217.08,415.4H220v27.14h-2.87Z" transform="translate(-1 -2.81)"/><path class="cls-3" d="M228.56,431V415.4h2.87v15.43c0,6.44,3,9.38,8.29,9.38s8.34-2.94,8.34-9.38V415.4h2.79V431c0,7.79-4.19,11.82-11.13,11.82S228.56,438.74,228.56,431Z" transform="translate(-1 -2.81)"/><path class="cls-3" d="M287.68,415.4v27.14h-2.75V420.83l-10.66,18.26h-1.36l-10.66-18.15v21.6h-2.76V415.4h2.37l11.79,20.12,11.67-20.12Z" transform="translate(-1 -2.81)"/><path class="cls-3" d="M309.55,417.88v10.66h14V431h-14v11.52h-2.87V415.4h18.61v2.48Z" transform="translate(-1 -2.81)"/><path class="cls-3" d="M328.47,429c0-7.91,6-13.8,14.27-13.8S357,421,357,429s-6.09,13.8-14.23,13.8S328.47,436.88,328.47,429Zm25.63,0a11.4,11.4,0,1,0-11.36,11.24A11,11,0,0,0,354.1,429Z" transform="translate(-1 -2.81)"/><path class="cls-3" d="M361,429c0-7.91,6-13.8,14.26-13.8S389.49,421,389.49,429s-6.08,13.8-14.23,13.8S361,436.88,361,429Zm25.62,0a11.4,11.4,0,1,0-11.36,11.24A11,11,0,0,0,386.62,429Z" transform="translate(-1 -2.81)"/><path class="cls-3" d="M395.93,415.4H407c8.68,0,14.54,5.58,14.54,13.57s-5.86,13.57-14.54,13.57H395.93Zm10.89,24.66c7.21,0,11.87-4.58,11.87-11.09s-4.66-11.09-11.87-11.09h-8v22.18Z" transform="translate(-1 -2.81)"/><path class="cls-3" d="M438.11,415.4h11.05c8.69,0,14.54,5.58,14.54,13.57s-5.85,13.57-14.54,13.57H438.11ZM449,440.06c7.21,0,11.86-4.58,11.86-11.09s-4.65-11.09-11.86-11.09h-8v22.18Z" transform="translate(-1 -2.81)"/><path class="cls-3" d="M489.33,440.06v2.48h-19.2V415.4h18.62v2.48H473v9.65h14V430H473v10.08Z" transform="translate(-1 -2.81)"/><path class="cls-3" d="M496.07,415.4h2.87v24.66h15.2v2.48H496.07Z" transform="translate(-1 -2.81)"/><path class="cls-3" d="M518.91,415.4h2.87v27.14h-2.87Z" transform="translate(-1 -2.81)"/><path class="cls-3" d="M552.87,415.4l-12,27.14H538L526,415.4h3.1L539.49,439,550,415.4Z" transform="translate(-1 -2.81)"/><path class="cls-3" d="M576,440.06v2.48H556.79V415.4H575.4v2.48H559.65v9.65h14V430h-14v10.08Z" transform="translate(-1 -2.81)"/><path class="cls-3" d="M601.26,442.54l-6.21-8.72a21.28,21.28,0,0,1-2.17.11h-7.29v8.61h-2.87V415.4h10.16c6.9,0,11.09,3.49,11.09,9.3a8.41,8.41,0,0,1-6.2,8.53l6.63,9.31Zm-.16-17.84c0-4.34-2.87-6.82-8.3-6.82h-7.21v13.61h7.21C598.23,431.49,601.1,429,601.1,424.7Z" transform="translate(-1 -2.81)"/><path class="cls-3" d="M619.67,433.16v9.38h-2.83v-9.38L606,415.4h3.06l9.3,15.24,9.31-15.24h2.87Z" transform="translate(-1 -2.81)"/><path class="cls-3" d="M362.39,106.71c-78.33,0-145.32,49.34-171.62,118.56h4.83c26.07-66.68,91-114.07,166.79-114.07s140.72,47.39,166.79,114.07H534C507.71,156.05,440.72,106.71,362.39,106.71Z" transform="translate(-1 -2.81)"/><path class="cls-3" d="M150.2,225.27C178.05,134.52,262.63,68.34,362.39,68.34s184.34,66.18,212.19,156.93h9.34C555.78,129.5,467.15,59.35,362.39,59.35S169,129.5,140.86,225.27Z" transform="translate(-1 -2.81)"/><path class="cls-4" d="M357.63,145c6.28,5.72,24.06,20.54,33.39,28.38S406,185,433,216.94c2.28,2.71,4.61,5.51,7,8.33h48.8c-4.7-4.27-9.78-8.82-15.33-13.67-41.63-36.42-49.23-42.13-56.37-49.54s-21.51-27.55-29.26-37.7-36.9-41.72-63.1-66.5S278.34,18.7,265.17,13.51c0,0-15.53-4.83-21.09-3.47s-12.57,5-4,14.39S351.35,139.24,357.63,145Z" transform="translate(-1 -2.81)"/><path class="cls-3" d="M325.68,169.42h0c14.08-13.91,27-26.33,32.21-31.09,11.41-10.45,11.47-8,19.39-10.79s18.49.37,31.54-9.2,36.07-38.51,59.31-65.86,18.24-22.83,14.68-19.35-66.2,65.51-70.14,68.29-8.2-2.63-5.9-5.59,4.26-5.23,17-19.51,50.45-55.41,49.53-55.93-69.26,67.24-72.65,70.37c-3,2.84-4.59.56-5.11.07l-.08-.08c-.53-.5-3-2-.08-5,3.2-3.31,72.47-70.21,71.91-71.08s-42.66,36.06-57.28,48.6S393.1,77.76,390.06,80s-8.73-1.75-5.9-5.58S450.37,9.28,453.93,5.8s8.18-8.37-19.85,14.46-57.7,45.45-67.43,58.17-6.27,22.84-9,30.51-.23,7.67-10.9,18.82c-4.93,5.15-17.92,18.12-32.38,32.14h0Z" transform="translate(-1 -2.81)"/><path class="cls-3" d="M273.17,225.27c2.91-3.56,5.75-7,8.41-10.1,7.92-9.32,23.7-25.48,39.07-40.76L309.07,165c-15.38,14.8-31.5,29.86-40.88,37.51-8.52,6.93-19,15.07-29.28,22.77Z" transform="translate(-1 -2.81)"/></svg>